<svg width="24" height="25" viewBox="0 0 24 25" fill="none" xmlns="http://www.w3.org/2000/svg">
<path d="M16 16.5V19.3C16 20.4201 16 20.9802 15.782 21.408C15.5903 21.7843 15.2843 22.0903 14.908 22.282C14.4802 22.5 13.9201 22.5 12.8 22.5H5.2C4.0799 22.5 3.51984 22.5 3.09202 22.282C2.71569 22.0903 2.40973 21.7843 2.21799 21.408C2 20.9802 2 20.4201 2 19.3V11.7C2 10.5799 2 10.0198 2.21799 9.59202C2.40973 9.21569 2.71569 8.90973 3.09202 8.71799C3.51984 8.5 4.0799 8.5 5.2 8.5H8M11.2 16.5H18.8C19.9201 16.5 20.4802 16.5 20.908 16.282C21.2843 16.0903 21.5903 15.7843 21.782 15.408C22 14.9802 22 14.4201 22 13.3V5.7C22 4.5799 22 4.01984 21.782 3.59202C21.5903 3.21569 21.2843 2.90973 20.908 2.71799C20.4802 2.5 19.9201 2.5 18.8 2.5H11.2C10.0799 2.5 9.51984 2.5 9.09202 2.71799C8.71569 2.90973 8.40973 3.21569 8.21799 3.59202C8 4.01984 8 4.57989 8 5.7V13.3C8 14.4201 8 14.9802 8.21799 15.408C8.40973 15.7843 8.71569 16.0903 9.09202 16.282C9.51984 16.5 10.0799 16.5 11.2 16.5Z" stroke="#D2D2D2" stroke-width="2" stroke-linecap="round" stroke-linejoin="round"/>
</svg>
