<svg width="24" height="24" viewBox="0 0 24 24" fill="none" xmlns="http://www.w3.org/2000/svg">
<path fill-rule="evenodd" clip-rule="evenodd" d="M19.3008 9.55463C19.7461 9.55463 20.1055 9.17963 20.1055 8.73431C20.1055 8.28119 19.7539 7.914 19.3008 7.914H4.70703C4.25391 7.914 3.90234 8.289 3.90234 8.73431C3.90234 9.17181 4.26172 9.55463 4.70703 9.55463H19.3008ZM19.3008 13.1874C19.7461 13.1874 20.1055 12.8124 20.1055 12.3671C20.1055 11.914 19.7539 11.5468 19.3008 11.5468H4.70703C4.25391 11.5468 3.90234 11.9218 3.90234 12.3671C3.90234 12.8046 4.26172 13.1874 4.70703 13.1874H19.3008ZM20.1055 15.9999C20.1055 16.4452 19.7461 16.8281 19.3008 16.8281H4.70703C4.26172 16.8281 3.90234 16.4374 3.90234 15.9999C3.90234 15.5546 4.25391 15.1796 4.70703 15.1796H19.3008C19.7539 15.1796 20.1055 15.5468 20.1055 15.9999Z" fill="white"/>
</svg>
