<svg width="24" height="24" viewBox="0 0 24 24" fill="none" xmlns="http://www.w3.org/2000/svg">
<path fill-rule="evenodd" clip-rule="evenodd" d="M13.2812 11.9992C13.2812 15.1358 10.7558 17.6784 7.6407 17.6784C4.52561 17.6784 2 15.1358 2 11.9992C2 8.86268 4.52542 6.31982 7.6407 6.31982C10.756 6.31982 13.2812 8.86268 13.2812 11.9992ZM19.469 11.9992C19.469 14.9516 18.2063 17.346 16.6487 17.346C15.091 17.346 13.8283 14.9516 13.8283 11.9992C13.8283 9.04684 15.0908 6.65251 16.6485 6.65251C18.2061 6.65251 19.4688 9.04608 19.4688 11.9992H19.469ZM21.0081 16.7891C21.556 16.7891 22 14.6438 22 11.9992C22 9.35385 21.5558 7.20941 21.0081 7.20941C20.4604 7.20941 20.0163 9.35404 20.0163 11.9992C20.0163 14.6444 20.4602 16.7891 21.0081 16.7891Z" fill="white"/>
</svg>
